<svg xmlns="http://www.w3.org/2000/svg" xmlns:xlink="http://www.w3.org/1999/xlink" version="1.1" x="0px" y="0px" viewBox="0 0 96 120" enable-background="new 0 0 96 96" xml:space="preserve"><path d="M70.447,8H25.553C15.858,8,8,15.858,8,25.553v44.894C8,80.141,15.858,88,25.553,88h44.894C80.141,88,88,80.141,88,70.447  V25.553C88,15.858,80.141,8,70.447,8z M29.781,71.25c-3.537,0-6.403-2.867-6.403-6.402c0-3.537,2.867-6.404,6.403-6.404  c3.536,0,6.403,2.867,6.403,6.404C36.184,68.383,33.317,71.25,29.781,71.25z M29.781,54.402c-3.537,0-6.403-2.866-6.403-6.402  s2.867-6.403,6.403-6.403c3.536,0,6.403,2.867,6.403,6.403S33.317,54.402,29.781,54.402z M29.781,37.554  c-3.537,0-6.403-2.867-6.403-6.403c0-3.536,2.867-6.403,6.403-6.403c3.536,0,6.403,2.867,6.403,6.403  C36.184,34.688,33.317,37.554,29.781,37.554z M66.218,71.251c-3.536,0-6.403-2.867-6.403-6.403c0-3.537,2.867-6.404,6.403-6.404  c3.537,0,6.404,2.867,6.404,6.404C72.622,68.384,69.755,71.251,66.218,71.251z M66.218,54.404c-3.536,0-6.403-2.867-6.403-6.404  c0-3.537,2.867-6.404,6.403-6.404c3.537,0,6.404,2.867,6.404,6.404C72.622,51.537,69.755,54.404,66.218,54.404z M66.218,37.555  c-3.536,0-6.403-2.867-6.403-6.404c0-3.537,2.867-6.404,6.403-6.404c3.537,0,6.404,2.867,6.404,6.404  C72.622,34.688,69.755,37.555,66.218,37.555z"/><text x="0" y="111" fill="#000000" font-size="5px" font-weight="bold" font-family="'Helvetica Neue', Helvetica, Arial-Unicode, Arial, Sans-serif">Created by vectoriconset10</text><text x="0" y="116" fill="#000000" font-size="5px" font-weight="bold" font-family="'Helvetica Neue', Helvetica, Arial-Unicode, Arial, Sans-serif">from the Noun Project</text></svg>