<svg xmlns="http://www.w3.org/2000/svg" xmlns:xlink="http://www.w3.org/1999/xlink" version="1.1" x="0px" y="0px" viewBox="0 0 100 125" enable-background="new 0 0 100 100" xml:space="preserve"><rect fill="none" width="100" height="100"/><g><g><path d="M41.067,28.163H19.619c-3.427,0-6.205,2.778-6.205,6.205v21.448c0,3.428,2.778,6.205,6.205,6.205h21.448    c3.427,0,6.205-2.777,6.205-6.205V34.368C47.271,30.941,44.494,28.163,41.067,28.163z M24.57,53.7    c-1.978,0-3.582-1.604-3.582-3.583s1.604-3.583,3.582-3.583c1.979,0,3.583,1.604,3.583,3.583S26.549,53.7,24.57,53.7z     M24.57,43.649c-1.978,0-3.582-1.604-3.582-3.583c0-1.979,1.604-3.583,3.582-3.583c1.979,0,3.583,1.604,3.583,3.583    C28.153,42.045,26.549,43.649,24.57,43.649z M36.115,53.7c-1.979,0-3.583-1.604-3.583-3.583s1.604-3.583,3.583-3.583    s3.583,1.604,3.583,3.583S38.094,53.7,36.115,53.7z M36.115,43.649c-1.979,0-3.583-1.604-3.583-3.583    c0-1.979,1.604-3.583,3.583-3.583s3.583,1.604,3.583,3.583C39.698,42.045,38.094,43.649,36.115,43.649z"/></g><g><path d="M73.712,33.623l-20.815,5.172c-3.326,0.827-5.352,4.192-4.526,7.518l5.172,20.815c0.826,3.325,4.192,5.352,7.518,4.524    l20.815-5.171c3.325-0.826,5.352-4.192,4.525-7.519l-5.172-20.815C80.403,34.822,77.038,32.796,73.712,33.623z M61.691,51.182    c-1.973,0.49-3.971-0.712-4.462-2.686c-0.489-1.974,0.713-3.971,2.687-4.462c1.974-0.49,3.971,0.712,4.461,2.686    C64.868,48.693,63.666,50.691,61.691,51.182z M74.856,61.241c-1.974,0.491-3.971-0.712-4.462-2.686    c-0.49-1.973,0.713-3.972,2.686-4.462c1.975-0.489,3.972,0.712,4.462,2.686C78.033,58.754,76.83,60.751,74.856,61.241z"/></g></g><text x="0" y="115" fill="#000000" font-size="5px" font-weight="bold" font-family="'Helvetica Neue', Helvetica, Arial-Unicode, Arial, Sans-serif">Created by Marco Livolsi</text><text x="0" y="120" fill="#000000" font-size="5px" font-weight="bold" font-family="'Helvetica Neue', Helvetica, Arial-Unicode, Arial, Sans-serif">from the Noun Project</text></svg>